<svg xmlns="http://www.w3.org/2000/svg" viewBox="0 0 187.45 129.85"><defs><style>.a{fill:none;stroke:#000;stroke-miterlimit:10;stroke-width:0.25px;}</style></defs><title>shell_top</title><path class="a" d="M133.89,118.75a3.66,3.66,0,0,1-7.32,0,3.66,3.66,0,1,1,7.32,0Z" transform="translate(-5.49 -5.94)"/><path class="a" d="M34.77,42.19a3.66,3.66,0,0,1-7.32,0,3.66,3.66,0,1,1,7.32,0Z" transform="translate(-5.49 -5.94)"/><path class="a" d="M191.39,85H150.24v39.68h41.13a1.44,1.44,0,0,1,1.44,1.45v2.3a7.22,7.22,0,0,1-7.2,7.2H12.81a7.22,7.22,0,0,1-7.2-7.2V13.27a7.22,7.22,0,0,1,7.2-7.2h172.8a7.22,7.22,0,0,1,7.2,7.2V83.61A1.43,1.43,0,0,1,191.39,85Z" transform="translate(-5.49 -5.94)"/><rect class="a" x="45.54" y="17.13" width="65.2" height="19.84"/></svg>