%TF.GenerationSoftware,KiCad,Pcbnew,(5.1.7)-1*%
%TF.CreationDate,2020-10-25T16:34:13+08:00*%
%TF.ProjectId,MuseDash-Peaches2,4d757365-4461-4736-982d-506561636865,rev?*%
%TF.SameCoordinates,Original*%
%TF.FileFunction,Paste,Top*%
%TF.FilePolarity,Positive*%
%FSLAX46Y46*%
G04 Gerber Fmt 4.6, Leading zero omitted, Abs format (unit mm)*
G04 Created by KiCad (PCBNEW (5.1.7)-1) date 2020-10-25 16:34:13*
%MOMM*%
%LPD*%
G01*
G04 APERTURE LIST*
%ADD10R,1.600000X1.300000*%
%ADD11R,0.550000X1.500000*%
%ADD12R,1.500000X0.550000*%
%ADD13R,1.150000X0.300000*%
%ADD14R,0.800000X0.900000*%
G04 APERTURE END LIST*
%TO.C,C3*%
G36*
G01*
X122170000Y-93147000D02*
X121670000Y-93147000D01*
G75*
G02*
X121445000Y-92922000I0J225000D01*
G01*
X121445000Y-92472000D01*
G75*
G02*
X121670000Y-92247000I225000J0D01*
G01*
X122170000Y-92247000D01*
G75*
G02*
X122395000Y-92472000I0J-225000D01*
G01*
X122395000Y-92922000D01*
G75*
G02*
X122170000Y-93147000I-225000J0D01*
G01*
G37*
G36*
G01*
X122170000Y-94697000D02*
X121670000Y-94697000D01*
G75*
G02*
X121445000Y-94472000I0J225000D01*
G01*
X121445000Y-94022000D01*
G75*
G02*
X121670000Y-93797000I225000J0D01*
G01*
X122170000Y-93797000D01*
G75*
G02*
X122395000Y-94022000I0J-225000D01*
G01*
X122395000Y-94472000D01*
G75*
G02*
X122170000Y-94697000I-225000J0D01*
G01*
G37*
%TD*%
%TO.C,C2*%
G36*
G01*
X132838000Y-93147000D02*
X132338000Y-93147000D01*
G75*
G02*
X132113000Y-92922000I0J225000D01*
G01*
X132113000Y-92472000D01*
G75*
G02*
X132338000Y-92247000I225000J0D01*
G01*
X132838000Y-92247000D01*
G75*
G02*
X133063000Y-92472000I0J-225000D01*
G01*
X133063000Y-92922000D01*
G75*
G02*
X132838000Y-93147000I-225000J0D01*
G01*
G37*
G36*
G01*
X132838000Y-94697000D02*
X132338000Y-94697000D01*
G75*
G02*
X132113000Y-94472000I0J225000D01*
G01*
X132113000Y-94022000D01*
G75*
G02*
X132338000Y-93797000I225000J0D01*
G01*
X132838000Y-93797000D01*
G75*
G02*
X133063000Y-94022000I0J-225000D01*
G01*
X133063000Y-94472000D01*
G75*
G02*
X132838000Y-94697000I-225000J0D01*
G01*
G37*
%TD*%
%TO.C,R6*%
G36*
G01*
X116311000Y-90087000D02*
X116861000Y-90087000D01*
G75*
G02*
X117061000Y-90287000I0J-200000D01*
G01*
X117061000Y-90687000D01*
G75*
G02*
X116861000Y-90887000I-200000J0D01*
G01*
X116311000Y-90887000D01*
G75*
G02*
X116111000Y-90687000I0J200000D01*
G01*
X116111000Y-90287000D01*
G75*
G02*
X116311000Y-90087000I200000J0D01*
G01*
G37*
G36*
G01*
X116311000Y-88437000D02*
X116861000Y-88437000D01*
G75*
G02*
X117061000Y-88637000I0J-200000D01*
G01*
X117061000Y-89037000D01*
G75*
G02*
X116861000Y-89237000I-200000J0D01*
G01*
X116311000Y-89237000D01*
G75*
G02*
X116111000Y-89037000I0J200000D01*
G01*
X116111000Y-88637000D01*
G75*
G02*
X116311000Y-88437000I200000J0D01*
G01*
G37*
%TD*%
%TO.C,C1*%
G36*
G01*
X110673000Y-94492000D02*
X110673000Y-94992000D01*
G75*
G02*
X110448000Y-95217000I-225000J0D01*
G01*
X109998000Y-95217000D01*
G75*
G02*
X109773000Y-94992000I0J225000D01*
G01*
X109773000Y-94492000D01*
G75*
G02*
X109998000Y-94267000I225000J0D01*
G01*
X110448000Y-94267000D01*
G75*
G02*
X110673000Y-94492000I0J-225000D01*
G01*
G37*
G36*
G01*
X112223000Y-94492000D02*
X112223000Y-94992000D01*
G75*
G02*
X111998000Y-95217000I-225000J0D01*
G01*
X111548000Y-95217000D01*
G75*
G02*
X111323000Y-94992000I0J225000D01*
G01*
X111323000Y-94492000D01*
G75*
G02*
X111548000Y-94267000I225000J0D01*
G01*
X111998000Y-94267000D01*
G75*
G02*
X112223000Y-94492000I0J-225000D01*
G01*
G37*
%TD*%
%TO.C,D4*%
G36*
G01*
X110487750Y-88234000D02*
X111000250Y-88234000D01*
G75*
G02*
X111219000Y-88452750I0J-218750D01*
G01*
X111219000Y-88890250D01*
G75*
G02*
X111000250Y-89109000I-218750J0D01*
G01*
X110487750Y-89109000D01*
G75*
G02*
X110269000Y-88890250I0J218750D01*
G01*
X110269000Y-88452750D01*
G75*
G02*
X110487750Y-88234000I218750J0D01*
G01*
G37*
G36*
G01*
X110487750Y-86659000D02*
X111000250Y-86659000D01*
G75*
G02*
X111219000Y-86877750I0J-218750D01*
G01*
X111219000Y-87315250D01*
G75*
G02*
X111000250Y-87534000I-218750J0D01*
G01*
X110487750Y-87534000D01*
G75*
G02*
X110269000Y-87315250I0J218750D01*
G01*
X110269000Y-86877750D01*
G75*
G02*
X110487750Y-86659000I218750J0D01*
G01*
G37*
%TD*%
%TO.C,D3*%
G36*
G01*
X111000250Y-92919000D02*
X110487750Y-92919000D01*
G75*
G02*
X110269000Y-92700250I0J218750D01*
G01*
X110269000Y-92262750D01*
G75*
G02*
X110487750Y-92044000I218750J0D01*
G01*
X111000250Y-92044000D01*
G75*
G02*
X111219000Y-92262750I0J-218750D01*
G01*
X111219000Y-92700250D01*
G75*
G02*
X111000250Y-92919000I-218750J0D01*
G01*
G37*
G36*
G01*
X111000250Y-91344000D02*
X110487750Y-91344000D01*
G75*
G02*
X110269000Y-91125250I0J218750D01*
G01*
X110269000Y-90687750D01*
G75*
G02*
X110487750Y-90469000I218750J0D01*
G01*
X111000250Y-90469000D01*
G75*
G02*
X111219000Y-90687750I0J-218750D01*
G01*
X111219000Y-91125250D01*
G75*
G02*
X111000250Y-91344000I-218750J0D01*
G01*
G37*
%TD*%
D10*
%TO.C,Y1*%
X128904000Y-94472000D03*
X125604000Y-94472000D03*
X125604000Y-92472000D03*
X128904000Y-92472000D03*
%TD*%
D11*
%TO.C,U2*%
X123508000Y-74310000D03*
X124308000Y-74310000D03*
X125108000Y-74310000D03*
X125908000Y-74310000D03*
X126708000Y-74310000D03*
X127508000Y-74310000D03*
X128308000Y-74310000D03*
X129108000Y-74310000D03*
X129908000Y-74310000D03*
X130708000Y-74310000D03*
X131508000Y-74310000D03*
D12*
X133208000Y-76010000D03*
X133208000Y-76810000D03*
X133208000Y-77610000D03*
X133208000Y-78410000D03*
X133208000Y-79210000D03*
X133208000Y-80010000D03*
X133208000Y-80810000D03*
X133208000Y-81610000D03*
X133208000Y-82410000D03*
X133208000Y-83210000D03*
X133208000Y-84010000D03*
D11*
X131508000Y-85710000D03*
X130708000Y-85710000D03*
X129908000Y-85710000D03*
X129108000Y-85710000D03*
X128308000Y-85710000D03*
X127508000Y-85710000D03*
X126708000Y-85710000D03*
X125908000Y-85710000D03*
X125108000Y-85710000D03*
X124308000Y-85710000D03*
X123508000Y-85710000D03*
D12*
X121808000Y-84010000D03*
X121808000Y-83210000D03*
X121808000Y-82410000D03*
X121808000Y-81610000D03*
X121808000Y-80810000D03*
X121808000Y-80010000D03*
X121808000Y-79210000D03*
X121808000Y-78410000D03*
X121808000Y-77610000D03*
X121808000Y-76810000D03*
X121808000Y-76010000D03*
%TD*%
%TO.C,U1*%
G36*
G01*
X149754000Y-70081000D02*
X149754000Y-70381000D01*
G75*
G02*
X149604000Y-70531000I-150000J0D01*
G01*
X148154000Y-70531000D01*
G75*
G02*
X148004000Y-70381000I0J150000D01*
G01*
X148004000Y-70081000D01*
G75*
G02*
X148154000Y-69931000I150000J0D01*
G01*
X149604000Y-69931000D01*
G75*
G02*
X149754000Y-70081000I0J-150000D01*
G01*
G37*
G36*
G01*
X149754000Y-68811000D02*
X149754000Y-69111000D01*
G75*
G02*
X149604000Y-69261000I-150000J0D01*
G01*
X148154000Y-69261000D01*
G75*
G02*
X148004000Y-69111000I0J150000D01*
G01*
X148004000Y-68811000D01*
G75*
G02*
X148154000Y-68661000I150000J0D01*
G01*
X149604000Y-68661000D01*
G75*
G02*
X149754000Y-68811000I0J-150000D01*
G01*
G37*
G36*
G01*
X149754000Y-67541000D02*
X149754000Y-67841000D01*
G75*
G02*
X149604000Y-67991000I-150000J0D01*
G01*
X148154000Y-67991000D01*
G75*
G02*
X148004000Y-67841000I0J150000D01*
G01*
X148004000Y-67541000D01*
G75*
G02*
X148154000Y-67391000I150000J0D01*
G01*
X149604000Y-67391000D01*
G75*
G02*
X149754000Y-67541000I0J-150000D01*
G01*
G37*
G36*
G01*
X149754000Y-66271000D02*
X149754000Y-66571000D01*
G75*
G02*
X149604000Y-66721000I-150000J0D01*
G01*
X148154000Y-66721000D01*
G75*
G02*
X148004000Y-66571000I0J150000D01*
G01*
X148004000Y-66271000D01*
G75*
G02*
X148154000Y-66121000I150000J0D01*
G01*
X149604000Y-66121000D01*
G75*
G02*
X149754000Y-66271000I0J-150000D01*
G01*
G37*
G36*
G01*
X149754000Y-65001000D02*
X149754000Y-65301000D01*
G75*
G02*
X149604000Y-65451000I-150000J0D01*
G01*
X148154000Y-65451000D01*
G75*
G02*
X148004000Y-65301000I0J150000D01*
G01*
X148004000Y-65001000D01*
G75*
G02*
X148154000Y-64851000I150000J0D01*
G01*
X149604000Y-64851000D01*
G75*
G02*
X149754000Y-65001000I0J-150000D01*
G01*
G37*
G36*
G01*
X149754000Y-63731000D02*
X149754000Y-64031000D01*
G75*
G02*
X149604000Y-64181000I-150000J0D01*
G01*
X148154000Y-64181000D01*
G75*
G02*
X148004000Y-64031000I0J150000D01*
G01*
X148004000Y-63731000D01*
G75*
G02*
X148154000Y-63581000I150000J0D01*
G01*
X149604000Y-63581000D01*
G75*
G02*
X149754000Y-63731000I0J-150000D01*
G01*
G37*
G36*
G01*
X149754000Y-62461000D02*
X149754000Y-62761000D01*
G75*
G02*
X149604000Y-62911000I-150000J0D01*
G01*
X148154000Y-62911000D01*
G75*
G02*
X148004000Y-62761000I0J150000D01*
G01*
X148004000Y-62461000D01*
G75*
G02*
X148154000Y-62311000I150000J0D01*
G01*
X149604000Y-62311000D01*
G75*
G02*
X149754000Y-62461000I0J-150000D01*
G01*
G37*
G36*
G01*
X149754000Y-61191000D02*
X149754000Y-61491000D01*
G75*
G02*
X149604000Y-61641000I-150000J0D01*
G01*
X148154000Y-61641000D01*
G75*
G02*
X148004000Y-61491000I0J150000D01*
G01*
X148004000Y-61191000D01*
G75*
G02*
X148154000Y-61041000I150000J0D01*
G01*
X149604000Y-61041000D01*
G75*
G02*
X149754000Y-61191000I0J-150000D01*
G01*
G37*
G36*
G01*
X144604000Y-61191000D02*
X144604000Y-61491000D01*
G75*
G02*
X144454000Y-61641000I-150000J0D01*
G01*
X143004000Y-61641000D01*
G75*
G02*
X142854000Y-61491000I0J150000D01*
G01*
X142854000Y-61191000D01*
G75*
G02*
X143004000Y-61041000I150000J0D01*
G01*
X144454000Y-61041000D01*
G75*
G02*
X144604000Y-61191000I0J-150000D01*
G01*
G37*
G36*
G01*
X144604000Y-62461000D02*
X144604000Y-62761000D01*
G75*
G02*
X144454000Y-62911000I-150000J0D01*
G01*
X143004000Y-62911000D01*
G75*
G02*
X142854000Y-62761000I0J150000D01*
G01*
X142854000Y-62461000D01*
G75*
G02*
X143004000Y-62311000I150000J0D01*
G01*
X144454000Y-62311000D01*
G75*
G02*
X144604000Y-62461000I0J-150000D01*
G01*
G37*
G36*
G01*
X144604000Y-63731000D02*
X144604000Y-64031000D01*
G75*
G02*
X144454000Y-64181000I-150000J0D01*
G01*
X143004000Y-64181000D01*
G75*
G02*
X142854000Y-64031000I0J150000D01*
G01*
X142854000Y-63731000D01*
G75*
G02*
X143004000Y-63581000I150000J0D01*
G01*
X144454000Y-63581000D01*
G75*
G02*
X144604000Y-63731000I0J-150000D01*
G01*
G37*
G36*
G01*
X144604000Y-65001000D02*
X144604000Y-65301000D01*
G75*
G02*
X144454000Y-65451000I-150000J0D01*
G01*
X143004000Y-65451000D01*
G75*
G02*
X142854000Y-65301000I0J150000D01*
G01*
X142854000Y-65001000D01*
G75*
G02*
X143004000Y-64851000I150000J0D01*
G01*
X144454000Y-64851000D01*
G75*
G02*
X144604000Y-65001000I0J-150000D01*
G01*
G37*
G36*
G01*
X144604000Y-66271000D02*
X144604000Y-66571000D01*
G75*
G02*
X144454000Y-66721000I-150000J0D01*
G01*
X143004000Y-66721000D01*
G75*
G02*
X142854000Y-66571000I0J150000D01*
G01*
X142854000Y-66271000D01*
G75*
G02*
X143004000Y-66121000I150000J0D01*
G01*
X144454000Y-66121000D01*
G75*
G02*
X144604000Y-66271000I0J-150000D01*
G01*
G37*
G36*
G01*
X144604000Y-67541000D02*
X144604000Y-67841000D01*
G75*
G02*
X144454000Y-67991000I-150000J0D01*
G01*
X143004000Y-67991000D01*
G75*
G02*
X142854000Y-67841000I0J150000D01*
G01*
X142854000Y-67541000D01*
G75*
G02*
X143004000Y-67391000I150000J0D01*
G01*
X144454000Y-67391000D01*
G75*
G02*
X144604000Y-67541000I0J-150000D01*
G01*
G37*
G36*
G01*
X144604000Y-68811000D02*
X144604000Y-69111000D01*
G75*
G02*
X144454000Y-69261000I-150000J0D01*
G01*
X143004000Y-69261000D01*
G75*
G02*
X142854000Y-69111000I0J150000D01*
G01*
X142854000Y-68811000D01*
G75*
G02*
X143004000Y-68661000I150000J0D01*
G01*
X144454000Y-68661000D01*
G75*
G02*
X144604000Y-68811000I0J-150000D01*
G01*
G37*
G36*
G01*
X144604000Y-70081000D02*
X144604000Y-70381000D01*
G75*
G02*
X144454000Y-70531000I-150000J0D01*
G01*
X143004000Y-70531000D01*
G75*
G02*
X142854000Y-70381000I0J150000D01*
G01*
X142854000Y-70081000D01*
G75*
G02*
X143004000Y-69931000I150000J0D01*
G01*
X144454000Y-69931000D01*
G75*
G02*
X144604000Y-70081000I0J-150000D01*
G01*
G37*
%TD*%
%TO.C,R17*%
G36*
G01*
X107359000Y-83333000D02*
X107359000Y-82783000D01*
G75*
G02*
X107559000Y-82583000I200000J0D01*
G01*
X107959000Y-82583000D01*
G75*
G02*
X108159000Y-82783000I0J-200000D01*
G01*
X108159000Y-83333000D01*
G75*
G02*
X107959000Y-83533000I-200000J0D01*
G01*
X107559000Y-83533000D01*
G75*
G02*
X107359000Y-83333000I0J200000D01*
G01*
G37*
G36*
G01*
X105709000Y-83333000D02*
X105709000Y-82783000D01*
G75*
G02*
X105909000Y-82583000I200000J0D01*
G01*
X106309000Y-82583000D01*
G75*
G02*
X106509000Y-82783000I0J-200000D01*
G01*
X106509000Y-83333000D01*
G75*
G02*
X106309000Y-83533000I-200000J0D01*
G01*
X105909000Y-83533000D01*
G75*
G02*
X105709000Y-83333000I0J200000D01*
G01*
G37*
%TD*%
%TO.C,R16*%
G36*
G01*
X115845000Y-63329000D02*
X115295000Y-63329000D01*
G75*
G02*
X115095000Y-63129000I0J200000D01*
G01*
X115095000Y-62729000D01*
G75*
G02*
X115295000Y-62529000I200000J0D01*
G01*
X115845000Y-62529000D01*
G75*
G02*
X116045000Y-62729000I0J-200000D01*
G01*
X116045000Y-63129000D01*
G75*
G02*
X115845000Y-63329000I-200000J0D01*
G01*
G37*
G36*
G01*
X115845000Y-64979000D02*
X115295000Y-64979000D01*
G75*
G02*
X115095000Y-64779000I0J200000D01*
G01*
X115095000Y-64379000D01*
G75*
G02*
X115295000Y-64179000I200000J0D01*
G01*
X115845000Y-64179000D01*
G75*
G02*
X116045000Y-64379000I0J-200000D01*
G01*
X116045000Y-64779000D01*
G75*
G02*
X115845000Y-64979000I-200000J0D01*
G01*
G37*
%TD*%
%TO.C,R15*%
G36*
G01*
X126829000Y-88879000D02*
X126829000Y-89429000D01*
G75*
G02*
X126629000Y-89629000I-200000J0D01*
G01*
X126229000Y-89629000D01*
G75*
G02*
X126029000Y-89429000I0J200000D01*
G01*
X126029000Y-88879000D01*
G75*
G02*
X126229000Y-88679000I200000J0D01*
G01*
X126629000Y-88679000D01*
G75*
G02*
X126829000Y-88879000I0J-200000D01*
G01*
G37*
G36*
G01*
X128479000Y-88879000D02*
X128479000Y-89429000D01*
G75*
G02*
X128279000Y-89629000I-200000J0D01*
G01*
X127879000Y-89629000D01*
G75*
G02*
X127679000Y-89429000I0J200000D01*
G01*
X127679000Y-88879000D01*
G75*
G02*
X127879000Y-88679000I200000J0D01*
G01*
X128279000Y-88679000D01*
G75*
G02*
X128479000Y-88879000I0J-200000D01*
G01*
G37*
%TD*%
%TO.C,R14*%
G36*
G01*
X154515000Y-60939000D02*
X154515000Y-61489000D01*
G75*
G02*
X154315000Y-61689000I-200000J0D01*
G01*
X153915000Y-61689000D01*
G75*
G02*
X153715000Y-61489000I0J200000D01*
G01*
X153715000Y-60939000D01*
G75*
G02*
X153915000Y-60739000I200000J0D01*
G01*
X154315000Y-60739000D01*
G75*
G02*
X154515000Y-60939000I0J-200000D01*
G01*
G37*
G36*
G01*
X156165000Y-60939000D02*
X156165000Y-61489000D01*
G75*
G02*
X155965000Y-61689000I-200000J0D01*
G01*
X155565000Y-61689000D01*
G75*
G02*
X155365000Y-61489000I0J200000D01*
G01*
X155365000Y-60939000D01*
G75*
G02*
X155565000Y-60739000I200000J0D01*
G01*
X155965000Y-60739000D01*
G75*
G02*
X156165000Y-60939000I0J-200000D01*
G01*
G37*
%TD*%
%TO.C,R13*%
G36*
G01*
X156165000Y-63733000D02*
X156165000Y-64283000D01*
G75*
G02*
X155965000Y-64483000I-200000J0D01*
G01*
X155565000Y-64483000D01*
G75*
G02*
X155365000Y-64283000I0J200000D01*
G01*
X155365000Y-63733000D01*
G75*
G02*
X155565000Y-63533000I200000J0D01*
G01*
X155965000Y-63533000D01*
G75*
G02*
X156165000Y-63733000I0J-200000D01*
G01*
G37*
G36*
G01*
X154515000Y-63733000D02*
X154515000Y-64283000D01*
G75*
G02*
X154315000Y-64483000I-200000J0D01*
G01*
X153915000Y-64483000D01*
G75*
G02*
X153715000Y-64283000I0J200000D01*
G01*
X153715000Y-63733000D01*
G75*
G02*
X153915000Y-63533000I200000J0D01*
G01*
X154315000Y-63533000D01*
G75*
G02*
X154515000Y-63733000I0J-200000D01*
G01*
G37*
%TD*%
%TO.C,R12*%
G36*
G01*
X156165000Y-66527000D02*
X156165000Y-67077000D01*
G75*
G02*
X155965000Y-67277000I-200000J0D01*
G01*
X155565000Y-67277000D01*
G75*
G02*
X155365000Y-67077000I0J200000D01*
G01*
X155365000Y-66527000D01*
G75*
G02*
X155565000Y-66327000I200000J0D01*
G01*
X155965000Y-66327000D01*
G75*
G02*
X156165000Y-66527000I0J-200000D01*
G01*
G37*
G36*
G01*
X154515000Y-66527000D02*
X154515000Y-67077000D01*
G75*
G02*
X154315000Y-67277000I-200000J0D01*
G01*
X153915000Y-67277000D01*
G75*
G02*
X153715000Y-67077000I0J200000D01*
G01*
X153715000Y-66527000D01*
G75*
G02*
X153915000Y-66327000I200000J0D01*
G01*
X154315000Y-66327000D01*
G75*
G02*
X154515000Y-66527000I0J-200000D01*
G01*
G37*
%TD*%
%TO.C,R11*%
G36*
G01*
X156165000Y-69321000D02*
X156165000Y-69871000D01*
G75*
G02*
X155965000Y-70071000I-200000J0D01*
G01*
X155565000Y-70071000D01*
G75*
G02*
X155365000Y-69871000I0J200000D01*
G01*
X155365000Y-69321000D01*
G75*
G02*
X155565000Y-69121000I200000J0D01*
G01*
X155965000Y-69121000D01*
G75*
G02*
X156165000Y-69321000I0J-200000D01*
G01*
G37*
G36*
G01*
X154515000Y-69321000D02*
X154515000Y-69871000D01*
G75*
G02*
X154315000Y-70071000I-200000J0D01*
G01*
X153915000Y-70071000D01*
G75*
G02*
X153715000Y-69871000I0J200000D01*
G01*
X153715000Y-69321000D01*
G75*
G02*
X153915000Y-69121000I200000J0D01*
G01*
X154315000Y-69121000D01*
G75*
G02*
X154515000Y-69321000I0J-200000D01*
G01*
G37*
%TD*%
%TO.C,R10*%
G36*
G01*
X156165000Y-72115000D02*
X156165000Y-72665000D01*
G75*
G02*
X155965000Y-72865000I-200000J0D01*
G01*
X155565000Y-72865000D01*
G75*
G02*
X155365000Y-72665000I0J200000D01*
G01*
X155365000Y-72115000D01*
G75*
G02*
X155565000Y-71915000I200000J0D01*
G01*
X155965000Y-71915000D01*
G75*
G02*
X156165000Y-72115000I0J-200000D01*
G01*
G37*
G36*
G01*
X154515000Y-72115000D02*
X154515000Y-72665000D01*
G75*
G02*
X154315000Y-72865000I-200000J0D01*
G01*
X153915000Y-72865000D01*
G75*
G02*
X153715000Y-72665000I0J200000D01*
G01*
X153715000Y-72115000D01*
G75*
G02*
X153915000Y-71915000I200000J0D01*
G01*
X154315000Y-71915000D01*
G75*
G02*
X154515000Y-72115000I0J-200000D01*
G01*
G37*
%TD*%
%TO.C,R9*%
G36*
G01*
X156165000Y-74909000D02*
X156165000Y-75459000D01*
G75*
G02*
X155965000Y-75659000I-200000J0D01*
G01*
X155565000Y-75659000D01*
G75*
G02*
X155365000Y-75459000I0J200000D01*
G01*
X155365000Y-74909000D01*
G75*
G02*
X155565000Y-74709000I200000J0D01*
G01*
X155965000Y-74709000D01*
G75*
G02*
X156165000Y-74909000I0J-200000D01*
G01*
G37*
G36*
G01*
X154515000Y-74909000D02*
X154515000Y-75459000D01*
G75*
G02*
X154315000Y-75659000I-200000J0D01*
G01*
X153915000Y-75659000D01*
G75*
G02*
X153715000Y-75459000I0J200000D01*
G01*
X153715000Y-74909000D01*
G75*
G02*
X153915000Y-74709000I200000J0D01*
G01*
X154315000Y-74709000D01*
G75*
G02*
X154515000Y-74909000I0J-200000D01*
G01*
G37*
%TD*%
%TO.C,R8*%
G36*
G01*
X156165000Y-77703000D02*
X156165000Y-78253000D01*
G75*
G02*
X155965000Y-78453000I-200000J0D01*
G01*
X155565000Y-78453000D01*
G75*
G02*
X155365000Y-78253000I0J200000D01*
G01*
X155365000Y-77703000D01*
G75*
G02*
X155565000Y-77503000I200000J0D01*
G01*
X155965000Y-77503000D01*
G75*
G02*
X156165000Y-77703000I0J-200000D01*
G01*
G37*
G36*
G01*
X154515000Y-77703000D02*
X154515000Y-78253000D01*
G75*
G02*
X154315000Y-78453000I-200000J0D01*
G01*
X153915000Y-78453000D01*
G75*
G02*
X153715000Y-78253000I0J200000D01*
G01*
X153715000Y-77703000D01*
G75*
G02*
X153915000Y-77503000I200000J0D01*
G01*
X154315000Y-77503000D01*
G75*
G02*
X154515000Y-77703000I0J-200000D01*
G01*
G37*
%TD*%
%TO.C,R7*%
G36*
G01*
X156165000Y-80497000D02*
X156165000Y-81047000D01*
G75*
G02*
X155965000Y-81247000I-200000J0D01*
G01*
X155565000Y-81247000D01*
G75*
G02*
X155365000Y-81047000I0J200000D01*
G01*
X155365000Y-80497000D01*
G75*
G02*
X155565000Y-80297000I200000J0D01*
G01*
X155965000Y-80297000D01*
G75*
G02*
X156165000Y-80497000I0J-200000D01*
G01*
G37*
G36*
G01*
X154515000Y-80497000D02*
X154515000Y-81047000D01*
G75*
G02*
X154315000Y-81247000I-200000J0D01*
G01*
X153915000Y-81247000D01*
G75*
G02*
X153715000Y-81047000I0J200000D01*
G01*
X153715000Y-80497000D01*
G75*
G02*
X153915000Y-80297000I200000J0D01*
G01*
X154315000Y-80297000D01*
G75*
G02*
X154515000Y-80497000I0J-200000D01*
G01*
G37*
%TD*%
%TO.C,R5*%
G36*
G01*
X113517000Y-90087000D02*
X114067000Y-90087000D01*
G75*
G02*
X114267000Y-90287000I0J-200000D01*
G01*
X114267000Y-90687000D01*
G75*
G02*
X114067000Y-90887000I-200000J0D01*
G01*
X113517000Y-90887000D01*
G75*
G02*
X113317000Y-90687000I0J200000D01*
G01*
X113317000Y-90287000D01*
G75*
G02*
X113517000Y-90087000I200000J0D01*
G01*
G37*
G36*
G01*
X113517000Y-88437000D02*
X114067000Y-88437000D01*
G75*
G02*
X114267000Y-88637000I0J-200000D01*
G01*
X114267000Y-89037000D01*
G75*
G02*
X114067000Y-89237000I-200000J0D01*
G01*
X113517000Y-89237000D01*
G75*
G02*
X113317000Y-89037000I0J200000D01*
G01*
X113317000Y-88637000D01*
G75*
G02*
X113517000Y-88437000I200000J0D01*
G01*
G37*
%TD*%
%TO.C,R4*%
G36*
G01*
X150897000Y-77299000D02*
X150347000Y-77299000D01*
G75*
G02*
X150147000Y-77099000I0J200000D01*
G01*
X150147000Y-76699000D01*
G75*
G02*
X150347000Y-76499000I200000J0D01*
G01*
X150897000Y-76499000D01*
G75*
G02*
X151097000Y-76699000I0J-200000D01*
G01*
X151097000Y-77099000D01*
G75*
G02*
X150897000Y-77299000I-200000J0D01*
G01*
G37*
G36*
G01*
X150897000Y-78949000D02*
X150347000Y-78949000D01*
G75*
G02*
X150147000Y-78749000I0J200000D01*
G01*
X150147000Y-78349000D01*
G75*
G02*
X150347000Y-78149000I200000J0D01*
G01*
X150897000Y-78149000D01*
G75*
G02*
X151097000Y-78349000I0J-200000D01*
G01*
X151097000Y-78749000D01*
G75*
G02*
X150897000Y-78949000I-200000J0D01*
G01*
G37*
%TD*%
%TO.C,R3*%
G36*
G01*
X147849000Y-77299000D02*
X147299000Y-77299000D01*
G75*
G02*
X147099000Y-77099000I0J200000D01*
G01*
X147099000Y-76699000D01*
G75*
G02*
X147299000Y-76499000I200000J0D01*
G01*
X147849000Y-76499000D01*
G75*
G02*
X148049000Y-76699000I0J-200000D01*
G01*
X148049000Y-77099000D01*
G75*
G02*
X147849000Y-77299000I-200000J0D01*
G01*
G37*
G36*
G01*
X147849000Y-78949000D02*
X147299000Y-78949000D01*
G75*
G02*
X147099000Y-78749000I0J200000D01*
G01*
X147099000Y-78349000D01*
G75*
G02*
X147299000Y-78149000I200000J0D01*
G01*
X147849000Y-78149000D01*
G75*
G02*
X148049000Y-78349000I0J-200000D01*
G01*
X148049000Y-78749000D01*
G75*
G02*
X147849000Y-78949000I-200000J0D01*
G01*
G37*
%TD*%
%TO.C,R2*%
G36*
G01*
X143277000Y-77299000D02*
X142727000Y-77299000D01*
G75*
G02*
X142527000Y-77099000I0J200000D01*
G01*
X142527000Y-76699000D01*
G75*
G02*
X142727000Y-76499000I200000J0D01*
G01*
X143277000Y-76499000D01*
G75*
G02*
X143477000Y-76699000I0J-200000D01*
G01*
X143477000Y-77099000D01*
G75*
G02*
X143277000Y-77299000I-200000J0D01*
G01*
G37*
G36*
G01*
X143277000Y-78949000D02*
X142727000Y-78949000D01*
G75*
G02*
X142527000Y-78749000I0J200000D01*
G01*
X142527000Y-78349000D01*
G75*
G02*
X142727000Y-78149000I200000J0D01*
G01*
X143277000Y-78149000D01*
G75*
G02*
X143477000Y-78349000I0J-200000D01*
G01*
X143477000Y-78749000D01*
G75*
G02*
X143277000Y-78949000I-200000J0D01*
G01*
G37*
%TD*%
%TO.C,R1*%
G36*
G01*
X140229000Y-77299000D02*
X139679000Y-77299000D01*
G75*
G02*
X139479000Y-77099000I0J200000D01*
G01*
X139479000Y-76699000D01*
G75*
G02*
X139679000Y-76499000I200000J0D01*
G01*
X140229000Y-76499000D01*
G75*
G02*
X140429000Y-76699000I0J-200000D01*
G01*
X140429000Y-77099000D01*
G75*
G02*
X140229000Y-77299000I-200000J0D01*
G01*
G37*
G36*
G01*
X140229000Y-78949000D02*
X139679000Y-78949000D01*
G75*
G02*
X139479000Y-78749000I0J200000D01*
G01*
X139479000Y-78349000D01*
G75*
G02*
X139679000Y-78149000I200000J0D01*
G01*
X140229000Y-78149000D01*
G75*
G02*
X140429000Y-78349000I0J-200000D01*
G01*
X140429000Y-78749000D01*
G75*
G02*
X140229000Y-78949000I-200000J0D01*
G01*
G37*
%TD*%
D13*
%TO.C,J1*%
X107556000Y-93774000D03*
X107556000Y-92974000D03*
X107556000Y-88174000D03*
X107556000Y-87374000D03*
X107556000Y-87074000D03*
X107556000Y-87874000D03*
X107556000Y-88674000D03*
X107556000Y-89174000D03*
X107556000Y-89674000D03*
X107556000Y-90174000D03*
X107556000Y-90674000D03*
X107556000Y-91174000D03*
X107556000Y-91674000D03*
X107556000Y-92174000D03*
X107556000Y-92674000D03*
X107556000Y-93474000D03*
%TD*%
%TO.C,D13*%
G36*
G01*
X103982000Y-83314250D02*
X103982000Y-82801750D01*
G75*
G02*
X104200750Y-82583000I218750J0D01*
G01*
X104638250Y-82583000D01*
G75*
G02*
X104857000Y-82801750I0J-218750D01*
G01*
X104857000Y-83314250D01*
G75*
G02*
X104638250Y-83533000I-218750J0D01*
G01*
X104200750Y-83533000D01*
G75*
G02*
X103982000Y-83314250I0J218750D01*
G01*
G37*
G36*
G01*
X102407000Y-83314250D02*
X102407000Y-82801750D01*
G75*
G02*
X102625750Y-82583000I218750J0D01*
G01*
X103063250Y-82583000D01*
G75*
G02*
X103282000Y-82801750I0J-218750D01*
G01*
X103282000Y-83314250D01*
G75*
G02*
X103063250Y-83533000I-218750J0D01*
G01*
X102625750Y-83533000D01*
G75*
G02*
X102407000Y-83314250I0J218750D01*
G01*
G37*
%TD*%
%TO.C,D12*%
G36*
G01*
X158654000Y-60957750D02*
X158654000Y-61470250D01*
G75*
G02*
X158435250Y-61689000I-218750J0D01*
G01*
X157997750Y-61689000D01*
G75*
G02*
X157779000Y-61470250I0J218750D01*
G01*
X157779000Y-60957750D01*
G75*
G02*
X157997750Y-60739000I218750J0D01*
G01*
X158435250Y-60739000D01*
G75*
G02*
X158654000Y-60957750I0J-218750D01*
G01*
G37*
G36*
G01*
X160229000Y-60957750D02*
X160229000Y-61470250D01*
G75*
G02*
X160010250Y-61689000I-218750J0D01*
G01*
X159572750Y-61689000D01*
G75*
G02*
X159354000Y-61470250I0J218750D01*
G01*
X159354000Y-60957750D01*
G75*
G02*
X159572750Y-60739000I218750J0D01*
G01*
X160010250Y-60739000D01*
G75*
G02*
X160229000Y-60957750I0J-218750D01*
G01*
G37*
%TD*%
%TO.C,D11*%
G36*
G01*
X160229000Y-63751750D02*
X160229000Y-64264250D01*
G75*
G02*
X160010250Y-64483000I-218750J0D01*
G01*
X159572750Y-64483000D01*
G75*
G02*
X159354000Y-64264250I0J218750D01*
G01*
X159354000Y-63751750D01*
G75*
G02*
X159572750Y-63533000I218750J0D01*
G01*
X160010250Y-63533000D01*
G75*
G02*
X160229000Y-63751750I0J-218750D01*
G01*
G37*
G36*
G01*
X158654000Y-63751750D02*
X158654000Y-64264250D01*
G75*
G02*
X158435250Y-64483000I-218750J0D01*
G01*
X157997750Y-64483000D01*
G75*
G02*
X157779000Y-64264250I0J218750D01*
G01*
X157779000Y-63751750D01*
G75*
G02*
X157997750Y-63533000I218750J0D01*
G01*
X158435250Y-63533000D01*
G75*
G02*
X158654000Y-63751750I0J-218750D01*
G01*
G37*
%TD*%
%TO.C,D10*%
G36*
G01*
X160229000Y-66545750D02*
X160229000Y-67058250D01*
G75*
G02*
X160010250Y-67277000I-218750J0D01*
G01*
X159572750Y-67277000D01*
G75*
G02*
X159354000Y-67058250I0J218750D01*
G01*
X159354000Y-66545750D01*
G75*
G02*
X159572750Y-66327000I218750J0D01*
G01*
X160010250Y-66327000D01*
G75*
G02*
X160229000Y-66545750I0J-218750D01*
G01*
G37*
G36*
G01*
X158654000Y-66545750D02*
X158654000Y-67058250D01*
G75*
G02*
X158435250Y-67277000I-218750J0D01*
G01*
X157997750Y-67277000D01*
G75*
G02*
X157779000Y-67058250I0J218750D01*
G01*
X157779000Y-66545750D01*
G75*
G02*
X157997750Y-66327000I218750J0D01*
G01*
X158435250Y-66327000D01*
G75*
G02*
X158654000Y-66545750I0J-218750D01*
G01*
G37*
%TD*%
%TO.C,D9*%
G36*
G01*
X160229000Y-69339750D02*
X160229000Y-69852250D01*
G75*
G02*
X160010250Y-70071000I-218750J0D01*
G01*
X159572750Y-70071000D01*
G75*
G02*
X159354000Y-69852250I0J218750D01*
G01*
X159354000Y-69339750D01*
G75*
G02*
X159572750Y-69121000I218750J0D01*
G01*
X160010250Y-69121000D01*
G75*
G02*
X160229000Y-69339750I0J-218750D01*
G01*
G37*
G36*
G01*
X158654000Y-69339750D02*
X158654000Y-69852250D01*
G75*
G02*
X158435250Y-70071000I-218750J0D01*
G01*
X157997750Y-70071000D01*
G75*
G02*
X157779000Y-69852250I0J218750D01*
G01*
X157779000Y-69339750D01*
G75*
G02*
X157997750Y-69121000I218750J0D01*
G01*
X158435250Y-69121000D01*
G75*
G02*
X158654000Y-69339750I0J-218750D01*
G01*
G37*
%TD*%
%TO.C,D8*%
G36*
G01*
X160229000Y-72133750D02*
X160229000Y-72646250D01*
G75*
G02*
X160010250Y-72865000I-218750J0D01*
G01*
X159572750Y-72865000D01*
G75*
G02*
X159354000Y-72646250I0J218750D01*
G01*
X159354000Y-72133750D01*
G75*
G02*
X159572750Y-71915000I218750J0D01*
G01*
X160010250Y-71915000D01*
G75*
G02*
X160229000Y-72133750I0J-218750D01*
G01*
G37*
G36*
G01*
X158654000Y-72133750D02*
X158654000Y-72646250D01*
G75*
G02*
X158435250Y-72865000I-218750J0D01*
G01*
X157997750Y-72865000D01*
G75*
G02*
X157779000Y-72646250I0J218750D01*
G01*
X157779000Y-72133750D01*
G75*
G02*
X157997750Y-71915000I218750J0D01*
G01*
X158435250Y-71915000D01*
G75*
G02*
X158654000Y-72133750I0J-218750D01*
G01*
G37*
%TD*%
%TO.C,D7*%
G36*
G01*
X160229000Y-74927750D02*
X160229000Y-75440250D01*
G75*
G02*
X160010250Y-75659000I-218750J0D01*
G01*
X159572750Y-75659000D01*
G75*
G02*
X159354000Y-75440250I0J218750D01*
G01*
X159354000Y-74927750D01*
G75*
G02*
X159572750Y-74709000I218750J0D01*
G01*
X160010250Y-74709000D01*
G75*
G02*
X160229000Y-74927750I0J-218750D01*
G01*
G37*
G36*
G01*
X158654000Y-74927750D02*
X158654000Y-75440250D01*
G75*
G02*
X158435250Y-75659000I-218750J0D01*
G01*
X157997750Y-75659000D01*
G75*
G02*
X157779000Y-75440250I0J218750D01*
G01*
X157779000Y-74927750D01*
G75*
G02*
X157997750Y-74709000I218750J0D01*
G01*
X158435250Y-74709000D01*
G75*
G02*
X158654000Y-74927750I0J-218750D01*
G01*
G37*
%TD*%
%TO.C,D6*%
G36*
G01*
X160229000Y-77721750D02*
X160229000Y-78234250D01*
G75*
G02*
X160010250Y-78453000I-218750J0D01*
G01*
X159572750Y-78453000D01*
G75*
G02*
X159354000Y-78234250I0J218750D01*
G01*
X159354000Y-77721750D01*
G75*
G02*
X159572750Y-77503000I218750J0D01*
G01*
X160010250Y-77503000D01*
G75*
G02*
X160229000Y-77721750I0J-218750D01*
G01*
G37*
G36*
G01*
X158654000Y-77721750D02*
X158654000Y-78234250D01*
G75*
G02*
X158435250Y-78453000I-218750J0D01*
G01*
X157997750Y-78453000D01*
G75*
G02*
X157779000Y-78234250I0J218750D01*
G01*
X157779000Y-77721750D01*
G75*
G02*
X157997750Y-77503000I218750J0D01*
G01*
X158435250Y-77503000D01*
G75*
G02*
X158654000Y-77721750I0J-218750D01*
G01*
G37*
%TD*%
%TO.C,D5*%
G36*
G01*
X160229000Y-80515750D02*
X160229000Y-81028250D01*
G75*
G02*
X160010250Y-81247000I-218750J0D01*
G01*
X159572750Y-81247000D01*
G75*
G02*
X159354000Y-81028250I0J218750D01*
G01*
X159354000Y-80515750D01*
G75*
G02*
X159572750Y-80297000I218750J0D01*
G01*
X160010250Y-80297000D01*
G75*
G02*
X160229000Y-80515750I0J-218750D01*
G01*
G37*
G36*
G01*
X158654000Y-80515750D02*
X158654000Y-81028250D01*
G75*
G02*
X158435250Y-81247000I-218750J0D01*
G01*
X157997750Y-81247000D01*
G75*
G02*
X157779000Y-81028250I0J218750D01*
G01*
X157779000Y-80515750D01*
G75*
G02*
X157997750Y-80297000I218750J0D01*
G01*
X158435250Y-80297000D01*
G75*
G02*
X158654000Y-80515750I0J-218750D01*
G01*
G37*
%TD*%
D14*
%TO.C,D2*%
X148844000Y-84312000D03*
X147894000Y-82312000D03*
X149794000Y-82312000D03*
%TD*%
%TO.C,D1*%
X141732000Y-84312000D03*
X140782000Y-82312000D03*
X142682000Y-82312000D03*
%TD*%
%TO.C,C4*%
G36*
G01*
X122499000Y-89404000D02*
X122499000Y-88904000D01*
G75*
G02*
X122724000Y-88679000I225000J0D01*
G01*
X123174000Y-88679000D01*
G75*
G02*
X123399000Y-88904000I0J-225000D01*
G01*
X123399000Y-89404000D01*
G75*
G02*
X123174000Y-89629000I-225000J0D01*
G01*
X122724000Y-89629000D01*
G75*
G02*
X122499000Y-89404000I0J225000D01*
G01*
G37*
G36*
G01*
X120949000Y-89404000D02*
X120949000Y-88904000D01*
G75*
G02*
X121174000Y-88679000I225000J0D01*
G01*
X121624000Y-88679000D01*
G75*
G02*
X121849000Y-88904000I0J-225000D01*
G01*
X121849000Y-89404000D01*
G75*
G02*
X121624000Y-89629000I-225000J0D01*
G01*
X121174000Y-89629000D01*
G75*
G02*
X120949000Y-89404000I0J225000D01*
G01*
G37*
%TD*%
%TO.C,C5*%
G36*
G01*
X125659000Y-70108000D02*
X125659000Y-70608000D01*
G75*
G02*
X125434000Y-70833000I-225000J0D01*
G01*
X124984000Y-70833000D01*
G75*
G02*
X124759000Y-70608000I0J225000D01*
G01*
X124759000Y-70108000D01*
G75*
G02*
X124984000Y-69883000I225000J0D01*
G01*
X125434000Y-69883000D01*
G75*
G02*
X125659000Y-70108000I0J-225000D01*
G01*
G37*
G36*
G01*
X127209000Y-70108000D02*
X127209000Y-70608000D01*
G75*
G02*
X126984000Y-70833000I-225000J0D01*
G01*
X126534000Y-70833000D01*
G75*
G02*
X126309000Y-70608000I0J225000D01*
G01*
X126309000Y-70108000D01*
G75*
G02*
X126534000Y-69883000I225000J0D01*
G01*
X126984000Y-69883000D01*
G75*
G02*
X127209000Y-70108000I0J-225000D01*
G01*
G37*
%TD*%
M02*
