M48
; DRILL file {KiCad (5.1.7)-1} date 10/25/20 16:34:14
; FORMAT={-:-/ absolute / metric / decimal}
; #@! TF.CreationDate,2020-10-25T16:34:14+08:00
; #@! TF.GenerationSoftware,Kicad,Pcbnew,(5.1.7)-1
; #@! TF.FileFunction,Plated,1,2,PTH
FMAT,2
METRIC
T1C0.400
T2C0.600
T3C1.000
T4C2.500
%
G90
G05
T1
X112.268Y-86.614
X113.792Y-74.676
X113.792Y-84.836
X115.824Y-76.962
X115.824Y-77.812
X115.824Y-78.74
X115.824Y-80.01
X117.602Y-81.026
X120.396Y-77.724
X120.396Y-78.574
X120.396Y-80.01
X120.396Y-81.026
X120.396Y-82.55
X123.073Y-79.248
X123.074Y-87.03
X125.222Y-68.072
X125.476Y-82.042
X125.73Y-72.898
X126.492Y-77.724
X126.654Y-72.898
X128.27Y-84.074
X129.022Y-72.39
X129.12Y-84.074
X129.794Y-87.03
X129.872Y-72.401
X130.048Y-75.946
X130.722Y-72.39
X130.902Y-84.031
X131.572Y-72.39
X131.572Y-76.708
X131.826Y-83.312
X133.328Y-71.606
X133.35Y-74.676
X134.62Y-81.534
X135.636Y-76.708
X136.906Y-75.692
X137.414Y-79.248
X137.447Y-70.137
X138.43Y-79.248
X139.7Y-82.296
X140.208Y-68.834
X141.732Y-81.788
X142.24Y-79.248
X146.558Y-79.502
X146.558Y-82.296
X146.812Y-87.122
X149.86Y-85.344
T3
X160.528Y-87.122
X160.528Y-89.662
X160.528Y-92.202
X160.528Y-94.742
X155.448Y-87.122
X155.448Y-89.662
X155.448Y-92.202
X155.448Y-94.742
X118.618Y-62.484
X118.618Y-65.024
X121.158Y-62.484
X121.158Y-65.024
X123.698Y-62.484
X123.698Y-65.024
X126.238Y-62.484
X126.238Y-65.024
X128.778Y-62.484
X128.778Y-65.024
X131.318Y-62.484
X131.318Y-65.024
X133.858Y-62.484
X133.858Y-65.024
X136.398Y-62.484
X136.398Y-65.024
T4
X109.076Y-67.076
X144.076Y-94.076
T2
X103.111Y-86.104
X102.911Y-86.104
X102.711Y-86.104
X102.511Y-86.104
X103.111Y-94.744
X102.911Y-94.744
X102.711Y-94.744
X102.511Y-94.744
X107.541Y-86.104
X107.341Y-86.104
X107.141Y-86.104
X106.941Y-86.104
X106.741Y-86.104
X106.441Y-86.104
X107.541Y-94.744
X107.341Y-94.744
X107.141Y-94.744
X106.941Y-94.744
X106.741Y-94.744
X106.441Y-94.744
T0
M30
